<svg width="38" height="38" fill="none" xmlns="http://www.w3.org/2000/svg"><path fill-rule="evenodd" clip-rule="evenodd" d="M14.912 10.103l12.833 8.906a.597.597 0 010 .981l-12.833 8.907a.577.577 0 01-.601.034.594.594 0 01-.311-.525V10.593c0-.22.12-.422.31-.524a.576.576 0 01.602.034z" fill="#6D7893"/><path fill-rule="evenodd" clip-rule="evenodd" d="M19 0C8.523 0 0 8.523 0 19s8.523 19 19 19 19-8.523 19-19S29.477 0 19 0zm0 36.733C9.222 36.733 1.267 28.778 1.267 19S9.222 1.267 19 1.267 36.733 9.222 36.733 19 28.778 36.733 19 36.733z" fill="#6D7893"/></svg>