<svg width="24" height="24" fill="none" xmlns="http://www.w3.org/2000/svg"><g opacity=".5" fill-rule="evenodd" clip-rule="evenodd" fill="#000"><path d="M19.924 5.035A10.502 10.502 0 0012.5 2a10.502 10.502 0 00-7.425 3.035A10.224 10.224 0 002 12.36c0 2.768 1.092 5.37 3.075 7.326a10.502 10.502 0 007.425 3.035 10.5 10.5 0 007.424-3.035A10.224 10.224 0 0023 12.361c0-2.768-1.092-5.37-3.076-7.326zM12.5 21.896c-5.328 0-9.663-4.277-9.663-9.535S7.172 2.825 12.5 2.825s9.663 4.278 9.663 9.536-4.335 9.535-9.663 9.535z"/><path d="M20.955 14.066a.418.418 0 00-.509.298 7.978 7.978 0 01-1.154 2.531.41.41 0 00.111.573.42.42 0 00.581-.11 8.797 8.797 0 001.273-2.79.412.412 0 00-.302-.502zm.162-2.118a.416.416 0 00-.418.413c0 .118-.002.237-.008.354a.415.415 0 00.419.43.416.416 0 00.417-.394c.006-.13.009-.26.009-.39a.416.416 0 00-.419-.413zM12.5 8.997c-.807 0-1.464.648-1.464 1.445v7.182c0 .797.657 1.445 1.464 1.445.807 0 1.464-.648 1.464-1.445v-7.182c0-.797-.657-1.445-1.464-1.445zm.627 8.627c0 .342-.281.62-.627.62a.624.624 0 01-.627-.62v-7.182c0-.342.28-.62.627-.62.346 0 .627.278.627.62v7.182zm.408-11.548a1.485 1.485 0 00-1.035-.423c-.385 0-.762.154-1.036.423a1.445 1.445 0 00-.428 1.022c0 .38.156.752.429 1.022.273.269.65.423 1.035.423.385 0 .762-.154 1.036-.424.272-.269.428-.641.428-1.021 0-.38-.156-.753-.429-1.022zm-.591 1.46a.638.638 0 01-.888 0 .621.621 0 01-.183-.438.62.62 0 01.627-.62.64.64 0 01.444.182.62.62 0 01.183.438.62.62 0 01-.183.438z"/></g></svg>