<svg width="32" height="32" fill="none" xmlns="http://www.w3.org/2000/svg"><path d="M30.5 16c0 8.008-6.492 14.5-14.5 14.5S1.5 24.008 1.5 16 7.992 1.5 16 1.5 30.5 7.992 30.5 16z" fill="#000" fill-opacity=".01" stroke="#fff"/><path fill-rule="evenodd" clip-rule="evenodd" d="M23.72 11.37a.299.299 0 00-.348.01c-.133.102-.35.182-.585.244.61-.684.623-1.14.616-1.246a.298.298 0 00-.472-.222 3.168 3.168 0 01-1.776.615 3.295 3.295 0 00-2.296-.925c-1.846 0-3.347 1.523-3.347 3.396 0 .16.011.321.033.48-3.199-.035-5.796-3.104-5.823-3.136a.298.298 0 00-.487.042c-.92 1.599-.305 3.003.258 3.807a2.059 2.059 0 01-.228-.14.297.297 0 00-.476.233c-.025 1.524.707 2.397 1.396 2.88a.298.298 0 00-.315.384c.477 1.558 1.645 2.088 2.388 2.268-1.528 1.19-3.778.807-3.802.803a.298.298 0 00-.234.53c1.613 1.233 3.543 1.506 4.937 1.506a9.498 9.498 0 001.874-.172c7.06-1.675 7.258-8.149 7.242-9.21 1.325-1.234 1.532-1.704 1.564-1.82a.298.298 0 00-.12-.326zm-1.948 1.8a.298.298 0 00-.096.24c.02.287.38 7.038-6.775 8.735-.032.007-2.876.601-5.342-.621 1.042-.03 2.536-.303 3.576-1.472a.298.298 0 00-.222-.497h-.003c-.015.01-1.58-.002-2.295-1.491.288.016.644-.002.927-.133a.299.299 0 00-.063-.562c-.08-.017-1.822-.407-2.066-2.309.264.116.602.21.937.16a.297.297 0 00.15-.521c-.074-.065-1.71-1.52-.934-3.397.842.884 3.335 3.182 6.356 3.008a.3.3 0 00.273-.37 2.873 2.873 0 01-.087-.698c0-1.544 1.235-2.8 2.752-2.8a2.71 2.71 0 011.96.836c.055.056.13.089.209.09a3.7 3.7 0 001.42-.268 4.728 4.728 0 01-.782.751.298.298 0 00.207.532c.07-.006.424-.037.824-.124-.219.236-.518.535-.926.912z" fill="#fff"/></svg>