<svg width="24" height="24" viewBox="0 0 24 24" fill="none" xmlns="http://www.w3.org/2000/svg">
<g opacity="0.5">
<path fill-rule="evenodd" clip-rule="evenodd" d="M19.9245 5.0347C17.9414 3.07771 15.3046 1.99997 12.4999 1.99997C9.69523 1.99997 7.05852 3.07771 5.0754 5.0347C3.09211 6.99158 1.99999 9.59347 1.99999 12.3611C1.99999 15.1287 3.09211 17.7305 5.0754 19.6875C7.05852 21.6445 9.69523 22.7222 12.4999 22.7222C15.3046 22.7222 17.9414 21.6445 19.9245 19.6875C21.9078 17.7305 22.9999 15.1287 22.9999 12.3611C22.9999 9.59347 21.9078 6.99158 19.9245 5.0347ZM12.4999 21.8965C7.17156 21.8965 2.83658 17.619 2.83658 12.3611C2.83658 7.10309 7.17156 2.8255 12.4999 2.8255C17.8284 2.8255 22.1633 7.10309 22.1633 12.3611C22.1633 17.619 17.8284 21.8965 12.4999 21.8965Z" fill="black"/>
<path fill-rule="evenodd" clip-rule="evenodd" d="M20.9546 14.0663C20.7305 14.0099 20.5029 14.1434 20.446 14.3644C20.2126 15.2685 19.8243 16.12 19.2917 16.8951C19.162 17.0838 19.212 17.3404 19.4032 17.4684C19.4751 17.5165 19.5567 17.5396 19.6376 17.5396C19.7717 17.5396 19.9034 17.4761 19.9843 17.3584C20.5713 16.5039 20.9994 15.5651 21.2567 14.5681C21.3137 14.3472 21.1785 14.1224 20.9546 14.0663Z" fill="black"/>
<path fill-rule="evenodd" clip-rule="evenodd" d="M21.1175 11.9483C20.8865 11.9483 20.6992 12.1331 20.6992 12.3611C20.6992 12.479 20.6966 12.598 20.6915 12.7147C20.6815 12.9425 20.8605 13.1352 21.0913 13.145C21.0975 13.1453 21.1036 13.1454 21.1097 13.1454C21.3324 13.1454 21.5176 12.9721 21.5273 12.7505C21.533 12.6219 21.5358 12.4909 21.5358 12.3611C21.5358 12.1331 21.3485 11.9483 21.1175 11.9483Z" fill="black"/>
<path fill-rule="evenodd" clip-rule="evenodd" d="M12.4999 8.99675C11.6927 8.99675 11.0358 9.64492 11.0358 10.4416V17.6241C11.0358 18.4208 11.6927 19.0689 12.4999 19.0689C13.3072 19.0689 13.9641 18.4208 13.9641 17.6241V10.4416C13.9641 9.64492 13.3072 8.99675 12.4999 8.99675ZM13.1274 17.6241C13.1274 17.9656 12.846 18.2433 12.4999 18.2433C12.1539 18.2433 11.8725 17.9656 11.8725 17.6241V10.4416C11.8725 10.1002 12.1539 9.82241 12.4999 9.82241C12.846 9.82241 13.1274 10.1002 13.1274 10.4416V17.6241Z" fill="black"/>
<path fill-rule="evenodd" clip-rule="evenodd" d="M13.535 6.07592C13.2622 5.80714 12.8849 5.65316 12.4999 5.65316C12.1151 5.65316 11.7377 5.80714 11.4645 6.07617C11.192 6.34519 11.0358 6.7175 11.0358 7.0979C11.0358 7.47767 11.1919 7.84998 11.4649 8.11989C11.7377 8.38867 12.115 8.54265 12.4999 8.54265C12.8849 8.54265 13.2622 8.38867 13.5356 8.11926C13.808 7.85011 13.9641 7.4778 13.9641 7.0979C13.9641 6.7175 13.8079 6.34506 13.535 6.07592ZM12.944 7.53558C12.8268 7.65087 12.665 7.71711 12.4999 7.71711C12.3349 7.71711 12.173 7.65087 12.0564 7.53621C11.9395 7.42053 11.8725 7.26074 11.8725 7.09803C11.8725 6.93482 11.9394 6.77515 12.0557 6.66036C12.173 6.54494 12.3349 6.47882 12.4999 6.47882C12.665 6.47882 12.8269 6.54494 12.9437 6.65998C13.0605 6.77528 13.1274 6.93482 13.1274 7.0979C13.1274 7.26086 13.0604 7.42053 12.944 7.53558Z" fill="black"/>
</g>
</svg>
