<svg width="38" height="38" viewBox="0 0 38 38" fill="none" xmlns="http://www.w3.org/2000/svg">
<path fill-rule="evenodd" clip-rule="evenodd" d="M14.9117 10.103L27.745 19.0093C27.9043 19.1198 27.9999 19.3033 27.9999 19.4997C27.9999 19.6963 27.9043 19.8798 27.745 19.9902L14.9117 28.8966C14.8132 28.9649 14.6982 28.9999 14.5833 28.9999C14.4899 28.9999 14.396 28.9774 14.3109 28.931C14.1196 28.8284 14 28.6265 14 28.4061V10.5933C14 10.3731 14.1196 10.1712 14.3103 10.0686C14.5016 9.96579 14.7326 9.97943 14.9117 10.103Z" fill="#6D7893"/>
<path fill-rule="evenodd" clip-rule="evenodd" d="M19 -2.00272e-05C8.52339 -2.00272e-05 -2.00272e-05 8.5233 -2.00272e-05 19C-2.00272e-05 29.4765 8.52339 38 19 38C29.4766 38 38 29.4765 38 19C38 8.5233 29.4766 -2.00272e-05 19 -2.00272e-05ZM19 36.7332C9.2219 36.7332 1.26659 28.7779 1.26659 19C1.26659 9.2219 9.2219 1.26659 19 1.26659C28.778 1.26659 36.7333 9.2219 36.7333 19C36.7333 28.7779 28.778 36.7332 19 36.7332Z" fill="#6D7893"/>
</svg>
