<svg width="32" height="32" viewBox="0 0 32 32" fill="none" xmlns="http://www.w3.org/2000/svg">
<path d="M30.5 15.9999C30.5 24.008 24.0081 30.4998 15.9999 30.4998C7.99179 30.4998 1.5 24.008 1.5 15.9999C1.5 7.99173 7.99179 1.49994 15.9999 1.49994C24.0081 1.49994 30.5 7.99173 30.5 15.9999Z" fill="black" fill-opacity="0.01" stroke="white"/>
<path fill-rule="evenodd" clip-rule="evenodd" d="M23.7196 11.3709C23.6141 11.2994 23.4743 11.3034 23.3725 11.3802C23.2386 11.4816 23.0212 11.5621 22.7871 11.6243C23.3969 10.9401 23.41 10.4831 23.4034 10.3781C23.3966 10.2695 23.3313 10.1732 23.2331 10.127C23.1344 10.0806 23.0188 10.0919 22.9309 10.1556C22.2448 10.655 21.5614 10.7602 21.1551 10.7709C20.5312 10.1732 19.7212 9.84573 18.859 9.84573C17.0132 9.84573 15.5116 11.3692 15.5116 13.2416C15.5116 13.4027 15.523 13.5634 15.5454 13.7226C12.3463 13.6865 9.74855 10.6179 9.72169 10.586C9.6591 10.5115 9.56444 10.4714 9.46728 10.4802C9.3702 10.4885 9.28343 10.5436 9.23493 10.6283C8.31432 12.227 8.93041 13.6311 9.49347 14.4352C9.39398 14.382 9.31331 14.3296 9.26498 14.2942C9.17562 14.2272 9.05616 14.2162 8.95547 14.2657C8.85504 14.3153 8.79102 14.4167 8.78897 14.5285C8.76423 16.052 9.49646 16.9246 10.1853 17.4072C10.0935 17.3986 10.0003 17.4326 9.93652 17.5021C9.86502 17.5799 9.8397 17.69 9.87069 17.7911C10.3465 19.35 11.5145 19.8797 12.2579 20.0595C10.7295 21.2507 8.48032 20.8672 8.45559 20.863C8.31972 20.8388 8.18566 20.9103 8.1302 21.0365C8.0751 21.1624 8.11271 21.31 8.22231 21.3935C9.83549 22.6262 11.7651 22.8991 13.1588 22.8991C14.213 22.8991 14.9611 22.7429 15.0326 22.727C22.0926 21.052 22.2913 14.578 22.2749 13.5172C23.6003 12.2834 23.8074 11.8133 23.8393 11.697C23.8735 11.5738 23.8253 11.4427 23.7196 11.3709ZM21.7718 13.1709C21.7053 13.2321 21.6704 13.3201 21.6764 13.4103C21.6951 13.6968 22.0562 20.4482 14.9012 22.1454C14.8688 22.1523 12.0246 22.7464 9.55904 21.5236C10.6008 21.4946 12.0946 21.2215 13.1352 20.0517C13.2139 19.9637 13.2329 19.8373 13.1841 19.73C13.1358 19.6234 13.0294 19.5552 12.9129 19.5552C12.9121 19.5552 12.9109 19.5552 12.91 19.5552C12.8951 19.5647 11.3307 19.5533 10.6146 18.0636C10.903 18.08 11.2587 18.0621 11.542 17.9315C11.6587 17.8775 11.7275 17.755 11.7133 17.627C11.699 17.4994 11.6042 17.3952 11.4785 17.3687C11.3984 17.3518 9.6568 16.9619 9.41304 15.06C9.6773 15.1758 10.0155 15.2702 10.3497 15.2192C10.4647 15.202 10.5589 15.1194 10.5913 15.0076C10.6238 14.8956 10.5883 14.7752 10.5004 14.6988C10.426 14.6338 8.79042 13.1787 9.5659 11.3018C10.4078 12.1861 12.9014 14.4841 15.9225 14.3105C16.011 14.3054 16.0929 14.2606 16.1456 14.1891C16.198 14.1175 16.216 14.0263 16.1945 13.94C16.1373 13.7119 16.1081 13.477 16.1081 13.242C16.1081 11.6982 17.3427 10.4425 18.8599 10.4425C19.6021 10.4425 20.2983 10.739 20.8199 11.2776C20.8747 11.3344 20.9501 11.3668 21.0288 11.3684C21.3445 11.3728 21.8636 11.3355 22.4498 11.1002C22.2806 11.311 22.0321 11.5637 21.6666 11.8511C21.5632 11.9326 21.5254 12.0719 21.5734 12.1944C21.6213 12.3174 21.7453 12.3946 21.8745 12.3829C21.944 12.3773 22.2979 12.3463 22.698 12.2594C22.4793 12.4945 22.1805 12.7945 21.7718 13.1709Z" fill="white"/>
</svg>
